<svg xmlns="http://www.w3.org/2000/svg" xmlns:xlink="http://www.w3.org/1999/xlink" version="1.1" width="1000" height="1000" viewBox="0 0 1000 1000" xml:space="preserve">
<desc>Created with Fabric.js 3.5.0</desc>
<defs>
</defs>
<rect x="0" y="0" width="100%" height="100%" fill="#ffffff"/>
<g transform="matrix(0.3258 0 0 0.3258 499.9944 499.9944)" id="515419">
<g style="" vector-effect="non-scaling-stroke">
		<g transform="matrix(0.1333 0 0 -0.1333 83.481 -1278.769)">
<path style="stroke: none; stroke-width: 1; stroke-dasharray: none; stroke-linecap: butt; stroke-dashoffset: 0; stroke-linejoin: miter; stroke-miterlimit: 4; is-custom-font: none; font-file-url: none; fill: rgb(15,118,18); fill-rule: nonzero; opacity: 1;" transform=" translate(-12136.2064, -21100.6926)" d="M 12052 21380 c -91 -24 -158 -60 -212 -114 c -81 -79 -115 -183 -89 -273 c 18 -65 96 -144 164 -166 c 80 -26 189 -31 275 -13 c 208 44 340 172 340 328 c -1 107 -54 184 -159 231 c -68 30 -222 34 -319 7 z" stroke-linecap="round"/>
</g>
		<g transform="matrix(0.1333 0 0 -0.1333 -1188.3758 -1137.4433)">
<path style="stroke: none; stroke-width: 1; stroke-dasharray: none; stroke-linecap: butt; stroke-dashoffset: 0; stroke-linejoin: miter; stroke-miterlimit: 4; is-custom-font: none; font-file-url: none; fill: rgb(15,118,18); fill-rule: nonzero; opacity: 1;" transform=" translate(-2597.4699, -20040.4974)" d="M 2575 21339 c -557 -72 -982 -475 -1107 -1052 c -29 -135 -31 -389 -4 -517 c 86 -415 334 -738 702 -917 c 276 -133 608 -157 918 -66 c 261 76 252 75 376 70 c 95 -3 130 -9 201 -34 l 87 -31 l -33 72 c -127 277 -121 719 14 984 l 21 42 l -395 0 c -217 0 -395 -2 -395 -4 c 0 -2 13 -33 30 -68 c 111 -247 119 -638 17 -908 c -27 -74 -33 -77 -148 -79 c -97 -2 -164 14 -257 60 c -221 108 -365 358 -418 725 c -25 170 -22 478 5 628 c 61 343 186 606 376 791 c 128 126 240 182 380 192 c 84 6 169 -19 252 -73 c 154 -103 277 -349 335 -672 l 12 -67 l 17 185 c 19 206 39 351 75 549 c 14 73 23 136 20 138 c -2 2 -24 -1 -47 -8 c -24 -6 -107 -12 -184 -13 c -125 0 -153 3 -265 31 c -69 18 -160 37 -203 42 c -91 13 -282 12 -382 0 z" stroke-linecap="round"/>
</g>
		<g transform="matrix(0.1333 0 0 -0.1333 -119.3672 -1137.3751)">
<path style="stroke: none; stroke-width: 1; stroke-dasharray: none; stroke-linecap: butt; stroke-dashoffset: 0; stroke-linejoin: miter; stroke-miterlimit: 4; is-custom-font: none; font-file-url: none; fill: rgb(15,118,18); fill-rule: nonzero; opacity: 1;" transform=" translate(-10615, -20040)" d="M 9600 21286 c 0 -2 9 -46 19 -97 c 138 -671 138 -1617 0 -2288 c -10 -51 -19 -97 -19 -102 c 0 -5 171 -9 395 -9 c 217 0 395 3 395 8 c 0 4 -9 54 -20 112 c -54 275 -88 581 -97 860 c -5 184 -4 207 11 219 c 24 20 370 10 446 -14 c 162 -50 290 -149 428 -330 l 23 -30 l -7 115 c -10 149 -10 451 -1 610 l 7 125 l -27 -34 c -119 -148 -206 -227 -308 -276 c -108 -53 -170 -65 -365 -72 c -231 -8 -215 -23 -206 202 c 7 184 20 358 37 500 c 17 152 60 409 69 419 c 14 14 240 -12 353 -41 c 126 -32 219 -69 319 -130 c 205 -123 334 -274 429 -497 l 37 -90 l 6 45 c 3 24 8 85 11 134 c 9 129 42 369 70 515 c 14 69 25 131 25 138 c 0 9 -210 12 -1015 12 c -558 0 -1015 -2 -1015 -4 z" stroke-linecap="round"/>
</g>
		<g transform="matrix(0.1333 0 0 -0.1333 -952.5465 -1119.7058)">
<path style="stroke: none; stroke-width: 1; stroke-dasharray: none; stroke-linecap: butt; stroke-dashoffset: 0; stroke-linejoin: miter; stroke-miterlimit: 4; is-custom-font: none; font-file-url: none; fill: rgb(15,118,18); fill-rule: nonzero; opacity: 1;" transform=" translate(-4366.0446, -19907.5)" d="M 4643 21060 c -11 -43 -72 -157 -113 -212 c -123 -165 -377 -286 -638 -305 c -79 -6 -83 -7 -88 -32 c -3 -14 -8 -33 -10 -42 c -3 -11 10 -20 50 -32 c 73 -23 136 -81 169 -154 c 40 -90 50 -187 44 -395 c -6 -204 -21 -288 -89 -531 c -37 -133 -43 -165 -43 -252 c 0 -72 5 -115 18 -153 c 26 -74 100 -151 179 -188 c 59 -27 71 -29 183 -29 c 138 1 203 18 317 86 c 159 94 291 264 314 407 c 15 92 -39 196 -120 233 c -55 25 -165 25 -245 0 c -58 -18 -166 -77 -221 -120 l -24 -19 l 41 -45 c 139 -151 146 -377 13 -444 c -84 -43 -177 -23 -263 56 c -88 81 -108 189 -57 297 c 33 69 176 207 277 268 c 84 49 238 116 270 116 c 39 0 44 13 34 81 c -29 182 -37 635 -14 767 l 5 32 l 145 0 l 145 0 l -7 37 c -4 21 -9 41 -11 45 c -3 5 -63 8 -135 8 c -116 0 -129 2 -129 18 c 0 37 41 285 65 396 c 14 65 25 119 25 122 c 0 2 -18 4 -41 4 c -33 0 -42 -4 -46 -20 z" stroke-linecap="round"/>
</g>
		<g transform="matrix(0.1333 0 0 -0.1333 -502.268 -1087.4302)">
<path style="stroke: none; stroke-width: 1; stroke-dasharray: none; stroke-linecap: butt; stroke-dashoffset: 0; stroke-linejoin: miter; stroke-miterlimit: 4; is-custom-font: none; font-file-url: none; fill: rgb(15,118,18); fill-rule: nonzero; opacity: 1;" transform=" translate(-7743.1909, -19665.4937)" d="M 7721 20589 c -282 -29 -523 -144 -619 -296 c -49 -78 -65 -143 -60 -239 c 4 -73 10 -94 46 -168 c 48 -96 128 -184 227 -249 c 33 -21 146 -81 252 -132 c 216 -105 289 -148 351 -209 c 120 -114 130 -265 26 -376 c -115 -123 -291 -123 -414 0 c -56 56 -80 111 -80 185 c 0 70 23 127 69 169 c 17 17 31 33 31 38 c 0 12 -132 95 -198 125 c -77 34 -212 43 -277 19 c -77 -30 -135 -120 -135 -209 c 0 -14 9 -54 20 -90 c 96 -311 576 -493 1047 -397 c 403 83 621 387 511 714 c -40 122 -121 213 -267 299 c -88 52 -176 90 -401 173 c -247 90 -305 128 -331 214 c -33 108 73 280 206 336 c 55 23 142 11 194 -26 c 66 -49 63 -99 -13 -180 c -77 -82 -84 -159 -20 -230 c 112 -124 411 -80 530 77 c 18 24 38 66 44 95 c 53 237 -290 403 -739 357 z" stroke-linecap="round"/>
</g>
		<g transform="matrix(0.1333 0 0 -0.1333 523.9043 -1087.194)">
<path style="stroke: none; stroke-width: 1; stroke-dasharray: none; stroke-linecap: butt; stroke-dashoffset: 0; stroke-linejoin: miter; stroke-miterlimit: 4; is-custom-font: none; font-file-url: none; fill: rgb(15,118,18); fill-rule: nonzero; opacity: 1;" transform=" translate(-15439.5, -19663.7217)" d="M 15415 20590 c -198 -22 -398 -110 -532 -232 c -102 -95 -110 -206 -20 -285 c 112 -98 362 -58 462 73 c 41 53 63 113 78 207 c 17 103 34 132 87 148 c 56 17 114 -7 174 -71 c 80 -85 113 -197 103 -348 c -4 -72 -39 -222 -51 -222 c -2 0 -30 16 -62 35 c -88 53 -172 77 -295 82 c -230 11 -437 -73 -601 -245 c -129 -135 -187 -285 -188 -480 c 0 -212 74 -360 227 -452 c 105 -64 244 -85 369 -55 c 154 36 267 118 364 263 c 14 21 15 18 17 -50 c 2 -40 8 -94 14 -120 l 11 -48 l 368 0 l 369 0 l -44 93 c -129 272 -162 513 -115 842 c 49 343 9 537 -143 688 c -138 137 -360 204 -592 177 z m 145 -755 c 72 -37 88 -146 51 -350 c -46 -252 -139 -443 -241 -495 c -23 -12 -59 -20 -86 -20 c -42 0 -51 5 -84 38 c -104 110 -100 376 11 600 c 88 179 245 281 349 227 z" stroke-linecap="round"/>
</g>
		<g transform="matrix(0.1333 0 0 -0.1333 -741.0294 -1039.8102)">
<path style="stroke: none; stroke-width: 1; stroke-dasharray: none; stroke-linecap: butt; stroke-dashoffset: 0; stroke-linejoin: miter; stroke-miterlimit: 4; is-custom-font: none; font-file-url: none; fill: rgb(15,118,18); fill-rule: nonzero; opacity: 1;" transform=" translate(-5952.5, -19308.2574)" d="M 6245 20577 c -191 -50 -359 -210 -480 -459 c -29 -58 -45 -83 -45 -67 c 0 35 36 258 60 373 c 11 54 20 100 20 102 c 0 2 -164 4 -365 4 c -311 0 -365 -2 -365 -14 c 0 -8 7 -43 15 -78 c 132 -571 137 -1609 10 -2254 c -14 -71 -25 -135 -25 -141 c 0 -10 80 -13 365 -13 c 239 0 365 3 365 10 c 0 6 -9 50 -19 98 c -28 124 -58 331 -76 521 c -20 219 -21 208 20 162 c 78 -86 213 -112 377 -72 c 302 72 543 335 672 733 c 52 160 61 223 61 423 c -1 153 -4 194 -23 270 c -48 190 -137 316 -267 377 c -57 26 -81 31 -159 34 c -53 2 -112 -2 -141 -9 z m -88 -278 c 61 -23 110 -97 132 -199 c 17 -76 14 -314 -4 -434 c -31 -207 -81 -371 -165 -541 c -91 -187 -186 -275 -280 -262 c -131 17 -166 133 -157 512 c 7 285 43 458 136 650 c 73 151 150 239 238 271 c 47 16 64 17 100 3 z" stroke-linecap="round"/>
</g>
		<g transform="matrix(0.1333 0 0 -0.1333 280.036 -1090.5415)">
<path style="stroke: none; stroke-width: 1; stroke-dasharray: none; stroke-linecap: butt; stroke-dashoffset: 0; stroke-linejoin: miter; stroke-miterlimit: 4; is-custom-font: none; font-file-url: none; fill: rgb(15,118,18); fill-rule: nonzero; opacity: 1;" transform=" translate(-13610.5, -19688.8366)" d="M 13930 20572 c -235 -78 -429 -298 -531 -602 c -34 -102 -66 -248 -78 -353 c -7 -69 -8 -71 -16 -33 c -9 46 9 340 31 486 c 15 101 78 414 90 445 c 5 13 -39 15 -364 15 l -370 0 l 14 -62 c 70 -298 95 -476 101 -735 c 6 -233 -2 -355 -38 -563 c -19 -114 -66 -342 -76 -367 c -4 -11 64 -13 367 -13 l 372 0 l -6 38 c -26 166 -31 243 -30 462 c 0 268 16 401 69 585 c 83 288 241 505 367 505 c 43 0 86 -45 104 -108 c 33 -112 12 -294 -81 -698 c -49 -215 -80 -390 -90 -509 c -6 -71 7 -221 22 -261 c 4 -12 63 -14 373 -14 l 369 0 l -39 83 c -49 103 -93 236 -117 347 c -30 141 -24 378 15 620 c 50 304 41 459 -31 582 c -33 57 -97 115 -156 141 c -65 29 -197 33 -271 9 z" stroke-linecap="round"/>
</g>
		<g transform="matrix(0.1333 0 0 -0.1333 779.9694 -1090.5067)">
<path style="stroke: none; stroke-width: 1; stroke-dasharray: none; stroke-linecap: butt; stroke-dashoffset: 0; stroke-linejoin: miter; stroke-miterlimit: 4; is-custom-font: none; font-file-url: none; fill: rgb(15,118,18); fill-rule: nonzero; opacity: 1;" transform=" translate(-17360, -19688.5755)" d="M 17689 20576 c -126 -36 -271 -144 -369 -273 c -61 -80 -129 -212 -169 -327 c -33 -94 -81 -310 -81 -367 c 0 -19 -5 -41 -11 -49 c -15 -21 -4 282 17 440 c 14 117 56 340 88 473 l 14 57 l -370 0 c -301 0 -369 -2 -365 -13 c 22 -57 83 -387 102 -552 c 36 -310 5 -720 -79 -1065 c -8 -30 -17 -67 -20 -82 l -6 -28 l 371 0 l 371 0 l -6 33 c -37 209 -44 623 -13 813 c 32 206 71 331 149 485 c 138 274 335 342 379 132 c 24 -117 3 -285 -81 -653 c -75 -329 -92 -436 -93 -590 c -1 -82 4 -152 11 -177 l 13 -43 l 370 0 l 369 0 l -36 71 c -55 110 -111 291 -130 419 c -21 148 -14 329 21 535 c 35 202 43 388 21 475 c -34 135 -93 215 -196 266 c -45 23 -71 28 -140 31 c -49 1 -104 -3 -131 -11 z" stroke-linecap="round"/>
</g>
		<g transform="matrix(0.1333 0 0 -0.1333 1021.9281 -1086.5784)">
<path style="stroke: none; stroke-width: 1; stroke-dasharray: none; stroke-linecap: butt; stroke-dashoffset: 0; stroke-linejoin: miter; stroke-miterlimit: 4; is-custom-font: none; font-file-url: none; fill: rgb(15,118,18); fill-rule: nonzero; opacity: 1;" transform=" translate(-19174.6564, -19659.1061)" d="M 19165 20583 c -129 -20 -289 -81 -382 -144 c -66 -45 -167 -143 -215 -208 c -57 -75 -124 -221 -150 -327 c -19 -76 -22 -116 -23 -274 c 0 -201 9 -254 65 -391 c 99 -239 320 -424 577 -483 c 282 -64 537 2 722 185 c 80 80 125 152 148 240 c 14 56 15 74 5 121 c -15 66 -60 123 -116 149 c -56 25 -165 25 -247 -1 c -60 -18 -220 -108 -234 -131 c -4 -5 14 -32 40 -60 c 80 -85 138 -244 121 -332 c -4 -20 -17 -49 -30 -64 c -21 -24 -32 -28 -94 -31 c -95 -6 -161 24 -246 111 c -140 142 -207 384 -193 692 c 15 326 105 588 256 747 c 85 91 138 122 209 123 c 47 0 57 -4 78 -28 c 50 -58 25 -173 -57 -265 c -51 -57 -69 -98 -69 -153 c 0 -57 29 -100 92 -134 c 46 -25 64 -29 133 -30 c 131 0 260 49 329 125 c 107 119 91 265 -42 392 c -68 65 -147 108 -269 144 c -74 22 -111 27 -233 29 c -80 2 -158 1 -175 -2 z" stroke-linecap="round"/>
</g>
		<g transform="matrix(0.1333 0 0 -0.1333 1243.5131 -1087.0715)">
<path style="stroke: none; stroke-width: 1; stroke-dasharray: none; stroke-linecap: butt; stroke-dashoffset: 0; stroke-linejoin: miter; stroke-miterlimit: 4; is-custom-font: none; font-file-url: none; fill: rgb(15,118,18); fill-rule: nonzero; opacity: 1;" transform=" translate(-20836.5412, -19662.805)" d="M 20795 20573 c -304 -65 -541 -267 -662 -563 c -56 -138 -68 -207 -68 -395 c 0 -194 12 -256 76 -393 c 143 -309 415 -480 769 -485 c 149 -2 212 12 346 78 c 100 49 208 144 264 232 c 35 55 70 159 70 208 c 0 82 -51 162 -125 196 c -54 25 -164 25 -246 -1 c -59 -18 -220 -108 -234 -130 c -3 -5 12 -28 35 -51 c 79 -82 142 -254 126 -344 c -4 -22 -20 -51 -37 -68 c -29 -29 -32 -29 -107 -25 c -95 6 -164 38 -232 109 c -87 91 -162 273 -176 429 l -7 67 l 79 8 c 157 14 371 78 527 156 c 169 85 315 220 374 345 c 29 60 36 89 40 158 c 16 243 -146 415 -445 472 c -94 18 -277 17 -367 -3 z m 290 -85 c 58 -46 75 -144 51 -305 c -48 -329 -228 -573 -475 -647 c -88 -26 -84 -31 -77 92 c 25 376 115 631 283 794 c 86 84 165 108 218 66 z" stroke-linecap="round"/>
</g>
		<g transform="matrix(0.1333 0 0 -0.1333 82.4245 -1087.3545)">
<path style="stroke: none; stroke-width: 1; stroke-dasharray: none; stroke-linecap: butt; stroke-dashoffset: 0; stroke-linejoin: miter; stroke-miterlimit: 4; is-custom-font: none; font-file-url: none; fill: rgb(15,118,18); fill-rule: nonzero; opacity: 1;" transform=" translate(-12128.2756, -19664.9397)" d="M 11766 20532 c -2 -4 6 -53 20 -109 c 63 -270 94 -516 94 -758 c 0 -269 -30 -489 -115 -852 l -5 -23 l 370 0 c 349 0 371 1 366 18 c -31 107 -80 358 -102 528 c -23 172 -23 476 0 649 c 17 134 65 389 91 484 c 8 30 12 58 9 63 c -6 10 -721 11 -728 0 z" stroke-linecap="round"/>
</g>
		<g transform="matrix(0.1333 0 0 -0.1333 -327.2262 -994.3892)">
<path style="stroke: none; stroke-width: 1; stroke-dasharray: none; stroke-linecap: butt; stroke-dashoffset: 0; stroke-linejoin: miter; stroke-miterlimit: 4; is-custom-font: none; font-file-url: none; fill: rgb(15,118,18); fill-rule: nonzero; opacity: 1;" transform=" translate(-9055.8807, -18967.8606)" d="M 8990 19184 c -154 -41 -239 -131 -240 -252 c 0 -123 93 -195 254 -196 c 226 -2 388 141 353 312 c -24 121 -192 183 -367 136 z" stroke-linecap="round"/>
</g>
		<g transform="matrix(0.1333 0 0 -0.1333 -23.8546 264.6632)">
<path style="stroke: none; stroke-width: 1; stroke-dasharray: none; stroke-linecap: butt; stroke-dashoffset: 0; stroke-linejoin: miter; stroke-miterlimit: 4; is-custom-font: none; font-file-url: none; fill: rgb(15,118,18); fill-rule: nonzero; opacity: 1;" transform=" translate(-11333.2012, -9522.9162)" d="M 7310 17935 c -172 -42 -293 -127 -475 -332 c -105 -119 -141 -159 -234 -258 c -61 -65 -206 -225 -313 -345 c -36 -41 -84 -93 -105 -116 c -21 -23 -78 -85 -128 -139 c -49 -55 -99 -108 -110 -119 c -11 -12 -49 -55 -85 -96 c -73 -83 -132 -150 -170 -190 c -116 -124 -245 -264 -280 -305 c -44 -51 -192 -215 -245 -271 c -55 -57 -201 -218 -245 -269 c -41 -47 -162 -180 -260 -285 c -25 -27 -76 -84 -115 -126 c -128 -143 -344 -381 -385 -424 c -14 -14 -59 -64 -100 -110 c -114 -127 -274 -304 -296 -327 c -40 -42 -104 -112 -204 -223 c -56 -63 -135 -151 -174 -194 c -39 -44 -101 -111 -137 -150 c -37 -39 -86 -91 -109 -116 c -23 -25 -53 -61 -66 -80 c -13 -19 -36 -53 -51 -75 c -59 -83 -95 -175 -124 -310 c -31 -150 24 -390 123 -529 c 15 -23 45 -66 65 -96 c 44 -68 56 -84 91 -134 c 15 -22 34 -49 42 -61 c 35 -51 71 -103 101 -145 c 18 -25 64 -92 103 -149 c 39 -57 90 -131 114 -165 c 23 -33 60 -88 81 -121 c 22 -33 58 -85 81 -115 c 23 -30 60 -84 83 -119 c 23 -35 51 -76 62 -91 c 33 -45 119 -170 140 -204 c 10 -17 25 -37 32 -44 c 7 -7 13 -17 13 -21 c 0 -4 8 -16 18 -27 c 10 -10 26 -33 37 -50 c 27 -43 108 -160 144 -209 c 17 -22 38 -53 47 -70 c 9 -16 20 -32 23 -35 c 7 -5 27 -34 71 -100 c 35 -52 121 -177 145 -210 c 11 -15 39 -56 62 -91 c 23 -35 60 -89 83 -119 c 23 -30 59 -82 81 -115 c 21 -33 58 -87 81 -121 c 24 -34 70 -101 103 -149 c 33 -48 79 -115 103 -149 c 23 -33 63 -92 90 -130 c 26 -38 56 -81 67 -96 c 11 -15 29 -40 39 -56 c 77 -115 93 -139 111 -164 c 11 -15 43 -60 70 -100 c 28 -40 59 -85 70 -100 c 18 -25 62 -91 108 -160 c 9 -14 37 -54 62 -90 c 26 -36 57 -81 71 -100 c 13 -19 44 -64 69 -100 c 46 -66 111 -162 130 -191 c 11 -18 52 -77 87 -125 c 13 -17 42 -60 65 -95 c 23 -35 60 -89 83 -119 c 23 -30 59 -82 81 -115 c 21 -33 58 -88 81 -121 c 24 -34 65 -95 93 -135 c 27 -41 63 -92 80 -113 c 16 -22 39 -54 50 -72 c 21 -33 105 -157 140 -204 c 11 -15 39 -56 62 -91 c 23 -35 49 -73 58 -84 c 9 -11 26 -35 38 -54 c 22 -35 27 -42 82 -121 c 17 -23 38 -54 47 -69 c 31 -46 42 -63 71 -99 c 15 -19 27 -38 27 -42 c 0 -5 20 -33 45 -63 c 25 -31 45 -58 45 -61 c 0 -4 19 -34 43 -67 c 23 -34 60 -87 82 -119 c 22 -32 59 -85 83 -119 c 23 -33 42 -63 42 -66 c 0 -3 19 -31 43 -62 c 24 -32 51 -69 60 -83 c 68 -100 111 -161 137 -195 c 16 -22 34 -49 39 -60 c 6 -11 26 -42 46 -70 c 19 -27 55 -79 80 -115 c 24 -36 58 -83 74 -105 c 17 -22 38 -53 47 -70 c 9 -16 20 -32 23 -35 c 7 -5 27 -34 71 -100 c 34 -51 121 -177 145 -210 c 11 -15 41 -58 67 -96 c 26 -38 61 -88 77 -111 c 17 -24 37 -55 46 -70 c 9 -16 29 -46 46 -68 c 16 -22 50 -69 74 -105 c 37 -54 97 -142 145 -210 c 114 -164 189 -274 232 -339 c 20 -31 55 -81 78 -111 c 23 -30 60 -84 83 -119 c 23 -35 52 -78 65 -95 c 44 -62 93 -132 126 -182 c 56 -85 129 -190 165 -239 c 17 -22 38 -53 47 -69 c 9 -16 20 -34 25 -40 c 33 -40 69 -90 69 -96 c 0 -4 13 -25 30 -46 c 16 -22 33 -43 37 -49 c 7 -9 74 -107 123 -180 c 21 -31 64 -92 99 -142 c 17 -24 37 -55 46 -70 c 9 -16 29 -46 46 -68 c 16 -22 51 -71 77 -109 c 26 -38 56 -81 67 -96 c 11 -15 56 -80 100 -145 c 44 -64 99 -145 123 -179 c 23 -33 53 -77 66 -96 c 14 -19 45 -64 71 -100 c 25 -36 53 -76 62 -90 c 46 -69 90 -135 108 -160 c 22 -30 107 -153 143 -208 c 36 -53 156 -169 194 -187 c 18 -9 67 -34 108 -55 c 41 -22 82 -40 90 -40 c 8 0 29 -8 45 -17 c 24 -14 58 -17 180 -17 c 133 -1 157 2 215 22 c 60 22 133 56 220 103 c 70 38 196 169 244 255 c 9 16 30 47 47 69 c 16 22 50 69 74 105 c 25 36 64 93 87 126 c 24 34 70 101 103 149 c 33 48 79 115 103 149 c 23 34 60 88 81 121 c 22 33 58 85 81 115 c 23 30 56 78 73 105 c 18 28 38 57 45 65 c 7 8 21 27 30 41 c 9 15 40 59 67 99 c 28 40 58 84 67 99 c 9 14 21 31 25 36 c 8 10 53 75 86 125 c 36 53 108 157 136 195 c 17 22 38 54 47 70 c 9 17 31 48 48 69 c 17 22 40 54 51 72 c 21 33 105 157 140 204 c 11 15 39 56 62 91 c 23 35 60 89 83 119 c 23 30 59 82 80 115 c 22 33 54 80 71 105 c 18 25 69 99 114 165 c 45 66 96 140 114 165 c 30 43 69 98 101 145 c 8 12 27 39 42 61 c 34 48 44 63 94 138 c 21 32 50 74 64 94 c 14 19 32 45 40 57 c 24 35 68 98 92 131 c 13 17 42 60 65 95 c 53 81 85 127 99 142 c 5 7 31 44 57 82 c 26 39 66 98 89 131 c 24 34 69 99 100 145 c 31 46 77 113 102 149 c 26 36 76 108 112 160 c 35 52 73 106 83 120 c 10 14 36 51 57 84 c 22 32 57 84 79 116 c 22 32 62 91 90 131 c 27 41 63 92 80 113 c 16 22 39 54 50 72 c 21 33 105 157 140 204 c 11 15 39 56 62 91 c 23 35 49 73 58 84 c 9 11 26 35 38 54 c 23 37 36 56 77 113 c 54 77 126 182 145 212 c 11 18 37 54 58 82 c 21 27 56 76 78 109 c 38 58 79 118 167 244 c 23 33 42 64 42 67 c 0 3 10 18 23 33 c 26 32 51 66 75 102 c 32 49 111 164 141 204 c 17 22 37 52 46 68 c 9 15 29 46 46 70 c 16 23 51 73 77 111 c 26 38 56 81 67 96 c 25 34 112 160 145 210 c 33 50 120 176 145 210 c 29 39 114 163 157 229 c 50 75 79 118 101 144 c 9 12 35 49 57 82 c 22 33 54 80 71 105 c 18 25 64 92 103 149 c 85 123 136 198 194 280 c 23 33 42 63 42 67 c 0 3 19 29 43 58 c 23 30 51 69 62 87 c 11 18 27 43 35 55 c 8 11 27 38 42 60 c 28 39 69 97 98 138 c 8 12 24 37 35 55 c 11 19 27 41 35 50 c 8 9 27 35 41 56 c 49 76 64 98 84 125 c 11 15 41 58 67 96 c 40 58 105 152 148 214 c 114 164 189 274 232 339 c 20 31 55 81 78 111 c 23 30 60 84 83 119 c 23 35 51 76 62 91 c 11 15 56 80 100 145 c 111 163 174 254 264 380 c 28 39 59 87 70 107 c 12 20 26 40 31 43 c 6 4 16 17 21 28 c 5 12 23 40 40 62 c 16 22 42 58 57 79 c 15 22 34 49 42 61 c 8 12 25 37 37 56 c 12 19 30 43 38 54 c 49 60 102 167 132 265 c 37 119 39 290 4 400 c -26 84 -77 194 -98 211 c -7 6 -13 15 -13 20 c 0 12 -61 92 -113 150 c -113 123 -227 249 -277 304 c -63 71 -200 221 -255 280 c -81 88 -116 125 -232 255 c -66 74 -136 151 -154 171 c -19 20 -50 54 -69 75 c -19 22 -82 91 -140 155 c -58 63 -139 153 -180 199 c -41 46 -90 100 -109 119 c -18 20 -70 76 -115 125 c -44 49 -90 99 -101 110 c -11 12 -50 54 -85 95 c -36 41 -74 84 -85 96 c -11 12 -60 65 -110 119 c -49 54 -105 114 -124 134 c -18 21 -63 71 -100 112 c -86 98 -263 294 -271 300 c -8 6 -201 219 -295 325 c -38 43 -81 91 -95 105 c -31 33 -188 205 -251 274 c -25 28 -72 81 -105 117 c -79 87 -233 256 -264 290 c -80 84 -115 124 -195 214 c -131 149 -178 198 -242 252 c -115 97 -188 136 -316 168 l -102 25 l -3925 -1 l -3925 -1 l -95 -23 z m 7566 -1563 c 60 -59 156 -163 319 -347 c 105 -117 133 -148 294 -321 c 103 -111 137 -148 211 -233 c 36 -41 74 -84 85 -96 c 96 -101 284 -307 420 -460 c 39 -43 81 -91 95 -105 c 22 -24 109 -119 256 -279 c 28 -31 77 -85 109 -121 c 83 -93 227 -250 249 -274 c 20 -20 168 -183 296 -326 c 41 -46 86 -96 100 -110 c 128 -136 232 -249 284 -310 c 44 -51 196 -219 241 -265 c 51 -53 155 -170 171 -193 c 13 -19 13 -25 -1 -52 c -8 -16 -19 -30 -24 -30 c -5 0 -48 44 -96 98 c -118 130 -253 279 -290 318 c -67 70 -117 126 -240 264 c -71 80 -138 154 -150 166 c -11 11 -63 67 -115 124 c -52 56 -102 110 -111 119 c -9 9 -45 50 -80 91 c -34 41 -72 84 -84 96 c -11 11 -59 63 -106 115 c -48 52 -106 114 -129 139 c -23 25 -74 81 -113 125 c -69 78 -217 242 -267 295 c -50 53 -209 227 -265 290 c -102 114 -281 310 -369 404 c -21 23 -70 77 -109 121 c -292 331 -462 501 -546 543 c -35 17 -70 32 -78 32 c -8 0 -35 10 -61 23 l -47 22 l -3395 0 l -3395 0 l -60 -24 c -188 -74 -228 -104 -430 -325 c -49 -55 -101 -111 -115 -126 c -28 -30 -116 -127 -272 -301 c -58 -63 -113 -124 -124 -135 c -10 -11 -59 -65 -109 -119 c -49 -54 -99 -107 -110 -119 c -11 -11 -35 -39 -54 -61 c -33 -39 -188 -210 -246 -270 c -33 -35 -45 -48 -243 -270 c -74 -82 -142 -157 -151 -166 c -15 -15 -140 -151 -246 -267 c -27 -31 -57 -63 -65 -72 c -8 -9 -46 -52 -85 -95 c -38 -44 -77 -87 -85 -95 c -8 -9 -67 -72 -130 -140 c -63 -68 -124 -134 -135 -145 c -11 -12 -49 -55 -84 -96 c -35 -40 -112 -126 -171 -189 c -59 -63 -130 -139 -156 -169 c -27 -30 -79 -86 -115 -125 l -66 -69 l -17 26 c -11 16 -14 31 -9 40 c 7 14 111 132 173 197 c 127 135 232 249 284 310 c 42 49 192 215 241 266 c 50 52 197 214 272 299 c 39 44 85 96 104 117 c 19 20 77 83 129 139 c 52 56 122 132 156 168 c 34 36 92 102 130 145 c 38 44 78 89 89 101 c 11 11 70 74 130 140 c 61 65 119 128 130 140 c 11 12 49 55 85 96 c 80 91 110 124 265 291 c 39 41 102 111 141 154 c 39 43 117 131 174 194 c 57 63 113 124 124 136 c 23 23 164 176 247 270 c 144 161 209 232 263 286 l 59 58 l 3482 0 l 3482 0 l 59 -58 z m -548 -1452 c 17 -11 32 -23 32 -27 c 0 -5 33 -42 73 -84 c 88 -94 214 -231 332 -364 c 83 -93 134 -150 195 -215 c 171 -184 244 -263 280 -305 c 45 -53 198 -222 240 -265 c 28 -29 191 -208 295 -325 c 39 -43 81 -90 95 -105 c 104 -112 256 -278 365 -400 c 91 -101 227 -250 260 -285 c 40 -41 193 -209 242 -265 c 80 -92 129 -146 236 -258 c 37 -39 67 -76 67 -82 c 0 -14 -48 -99 -67 -120 c -8 -8 -33 -44 -56 -79 c -82 -124 -127 -183 -137 -179 c -3 2 -38 39 -77 83 c -39 44 -85 96 -104 117 c -19 20 -74 80 -124 134 c -49 54 -99 107 -110 119 c -11 12 -61 68 -112 126 c -50 57 -110 125 -134 150 c -24 25 -84 90 -134 144 c -49 54 -99 108 -109 118 c -11 11 -46 52 -80 91 c -33 39 -69 80 -81 92 c -11 11 -60 64 -110 118 c -49 54 -106 115 -125 136 c -19 20 -67 72 -105 116 c -66 75 -253 281 -285 315 c -77 80 -156 167 -213 234 c -38 44 -97 110 -131 146 c -33 36 -101 110 -151 164 c -49 54 -101 110 -115 125 c -14 15 -70 78 -125 140 c -176 200 -228 244 -347 297 l -63 28 l -2607 3 l -2606 2 l -79 -31 c -43 -17 -85 -37 -94 -45 c -8 -8 -20 -14 -26 -14 c -6 0 -69 -61 -139 -137 c -71 -75 -138 -146 -149 -157 c -11 -12 -50 -55 -85 -96 c -36 -41 -72 -81 -80 -90 c -8 -9 -58 -63 -110 -120 c -52 -57 -104 -113 -115 -124 c -12 -12 -79 -86 -150 -166 c -71 -80 -147 -165 -169 -189 c -23 -24 -52 -56 -66 -71 c -163 -177 -215 -234 -261 -286 c -92 -103 -202 -224 -249 -274 c -75 -80 -204 -222 -246 -270 c -46 -53 -246 -273 -254 -280 c -7 -6 -183 -200 -272 -300 c -36 -41 -84 -93 -105 -116 c -53 -57 -158 -174 -180 -203 c -19 -23 -20 -23 -47 -6 c -15 10 -34 32 -43 49 c -9 17 -25 43 -37 57 c -21 26 -30 39 -64 90 c -56 85 -72 108 -82 114 c -5 3 -10 18 -10 33 c 0 19 19 47 68 98 c 37 39 99 106 137 149 c 77 87 275 304 302 333 c 29 29 183 199 279 307 c 77 87 128 142 244 265 c 14 14 57 62 95 105 c 116 131 277 309 299 331 c 12 11 59 62 106 114 c 47 52 94 103 105 115 c 11 12 49 55 85 96 c 35 41 74 83 85 95 c 11 11 61 64 110 119 c 50 54 107 117 129 139 c 21 23 68 75 105 116 c 65 73 230 255 285 315 c 16 17 65 70 110 119 c 44 50 104 114 132 143 l 51 53 l 2974 0 c 2947 0 2974 0 3007 -20 z m -1444 -1529 c 17 -11 54 -22 81 -26 c 55 -8 78 -18 105 -45 c 9 -9 24 -20 31 -22 c 24 -9 5 -18 -67 -33 c -38 -8 -85 -22 -104 -32 c -33 -17 -118 -18 -1600 -18 l -1565 0 l -77 28 c -42 15 -85 27 -95 27 c -25 0 -52 20 -36 26 c 7 3 28 18 47 33 c 21 17 53 31 80 34 c 24 4 60 16 78 27 c 33 20 44 20 1562 20 c 1488 0 1529 -1 1560 -19 z m -4254 -533 c 14 -9 49 -19 79 -22 c 30 -4 71 -16 92 -27 c 21 -10 53 -19 71 -19 c 18 0 56 -12 83 -25 c 28 -14 66 -25 85 -25 c 20 0 54 -9 75 -20 c 22 -12 60 -23 85 -27 c 60 -8 77 -17 82 -48 c 6 -29 -12 -103 -41 -165 c -11 -25 -21 -53 -21 -64 c 0 -10 -9 -33 -19 -50 c -10 -17 -22 -47 -26 -66 c -4 -19 -16 -52 -26 -72 c -11 -21 -19 -45 -19 -55 c 0 -10 -11 -40 -25 -68 c -13 -27 -25 -59 -25 -70 c 0 -11 -9 -37 -20 -57 c -11 -21 -25 -59 -30 -85 c -6 -26 -17 -54 -25 -63 c -7 -8 -16 -33 -20 -55 c -4 -22 -15 -53 -25 -70 c -10 -16 -20 -46 -24 -66 c -4 -21 -13 -43 -21 -49 c -19 -16 -83 -6 -133 20 c -20 11 -44 20 -52 20 c -8 0 -37 11 -65 25 c -27 13 -57 25 -65 25 c -8 0 -37 11 -65 25 c -27 13 -58 25 -69 25 c -10 0 -33 9 -50 19 c -17 10 -47 22 -66 26 c -19 4 -46 13 -60 21 c -23 13 -78 33 -190 71 c -25 8 -61 23 -81 34 c -20 10 -45 19 -55 19 c -11 0 -41 12 -69 25 c -27 14 -56 25 -64 25 c -15 0 -129 48 -149 63 c -13 10 0 37 36 76 c 9 10 60 64 112 121 c 52 57 106 116 120 130 c 54 58 190 208 235 260 c 26 30 55 62 64 71 c 9 9 53 57 99 107 c 46 50 93 92 105 94 c 35 5 150 -17 177 -34 z m 5592 21 c 11 -6 34 -27 52 -47 c 67 -78 290 -325 338 -373 c 15 -16 94 -102 298 -329 c 107 -118 111 -149 19 -164 c -22 -3 -56 -15 -77 -26 c -20 -11 -46 -20 -57 -20 c -11 0 -36 -9 -56 -19 c -20 -11 -54 -23 -75 -27 c -22 -3 -52 -14 -69 -24 c -16 -10 -46 -21 -65 -25 c -19 -4 -54 -16 -77 -26 c -23 -11 -50 -19 -59 -19 c -10 0 -36 -9 -59 -20 c -23 -11 -64 -27 -91 -34 c -27 -8 -87 -29 -134 -46 c -47 -17 -106 -38 -131 -45 c -26 -7 -62 -21 -80 -31 c -20 -10 -58 -18 -94 -18 c -57 -1 -59 0 -68 29 c -5 17 -17 48 -28 70 c -10 22 -21 54 -25 70 c -3 17 -14 48 -24 70 c -10 22 -25 61 -34 88 c -9 26 -23 68 -32 95 c -9 26 -24 65 -34 87 c -10 22 -21 56 -25 75 c -4 19 -13 42 -20 50 c -7 8 -18 38 -24 65 c -7 28 -18 59 -25 70 c -8 11 -17 36 -21 55 c -4 19 -14 49 -23 65 c -20 39 -44 124 -44 153 c 0 36 30 62 71 62 c 20 0 55 9 76 21 c 22 11 68 25 102 30 c 34 5 77 18 95 29 c 18 11 49 20 68 20 c 19 0 52 9 72 20 c 20 10 60 22 90 26 c 29 4 67 14 83 22 c 60 31 150 41 187 21 z m -3085 -301 c 20 -17 15 -1047 -6 -1071 c -12 -16 -86 -17 -876 -17 c -717 0 -864 2 -874 14 c -9 10 -6 24 9 57 c 11 24 20 54 20 66 c 0 12 11 43 25 69 c 14 26 25 56 25 68 c 0 12 12 44 25 71 c 14 28 25 59 25 70 c 0 11 9 34 19 51 c 10 17 22 49 26 72 c 3 22 13 46 20 52 c 8 6 19 37 25 68 c 7 31 18 64 25 72 c 8 9 19 37 25 63 c 5 26 19 64 30 85 c 11 20 20 46 20 57 c 0 11 12 43 25 70 c 14 28 25 57 25 66 c 0 8 4 19 9 25 c 15 14 1361 7 1378 -8 z m 1767 6 c 9 -8 16 -26 16 -38 c 0 -13 8 -34 19 -47 c 10 -13 22 -44 26 -69 c 4 -24 15 -56 25 -70 c 10 -14 21 -45 24 -69 c 4 -24 16 -55 26 -69 c 11 -13 20 -39 20 -56 c 0 -17 11 -52 25 -78 c 14 -26 25 -56 25 -67 c 0 -11 11 -41 25 -67 c 14 -26 25 -56 25 -68 c 0 -12 8 -35 18 -51 c 11 -17 22 -48 26 -70 c 4 -21 16 -55 26 -74 c 23 -46 50 -132 50 -160 l 0 -21 l -870 0 c -852 0 -870 0 -880 20 c -7 13 -9 191 -8 537 l 3 518 l 665 5 c 366 3 673 6 682 8 c 9 1 24 -5 32 -14 z m -5348 -1163 c 14 -11 44 -23 67 -26 c 23 -4 53 -16 66 -26 c 13 -11 34 -19 46 -19 c 12 0 43 -11 69 -25 c 26 -14 56 -25 67 -25 c 11 0 41 -11 67 -25 c 26 -14 59 -25 73 -25 c 14 0 37 -9 51 -19 c 13 -11 42 -23 64 -26 c 21 -4 53 -15 69 -25 c 17 -10 46 -21 65 -25 c 19 -4 49 -15 65 -25 c 17 -10 49 -21 72 -25 c 22 -3 49 -15 59 -26 c 9 -10 30 -19 45 -19 c 15 0 49 -11 75 -25 c 26 -14 58 -25 71 -25 c 14 0 37 -9 52 -19 c 15 -11 45 -22 66 -26 c 62 -11 113 -51 121 -94 c 4 -20 14 -49 24 -66 c 10 -16 21 -48 25 -70 c 4 -22 13 -47 20 -55 c 8 -9 19 -37 25 -64 c 6 -27 20 -61 30 -77 c 11 -15 20 -39 20 -54 c 0 -14 11 -47 25 -73 c 14 -26 25 -57 25 -70 c 0 -12 9 -35 19 -50 c 11 -15 22 -45 26 -67 c 4 -22 15 -53 25 -70 c 9 -16 21 -47 24 -68 c 4 -21 16 -53 27 -70 c 10 -18 19 -41 19 -52 c 0 -11 12 -42 25 -70 c 14 -27 25 -59 25 -70 c 0 -11 9 -34 19 -52 c 11 -17 23 -49 26 -70 c 4 -21 15 -50 25 -64 c 10 -15 22 -44 26 -65 c 3 -22 13 -46 20 -54 c 7 -9 18 -40 25 -70 c 6 -30 17 -62 25 -70 c 7 -9 18 -37 23 -62 c 6 -26 20 -62 31 -80 c 11 -18 20 -43 20 -55 c 0 -12 11 -43 25 -69 c 14 -26 25 -56 25 -67 c 0 -11 8 -34 19 -51 c 10 -17 22 -49 26 -70 c 3 -22 15 -51 26 -64 c 10 -14 19 -37 19 -52 c 0 -15 11 -48 25 -74 c 14 -26 25 -57 25 -70 c 0 -13 8 -34 19 -47 c 10 -13 24 -50 30 -81 c 7 -31 18 -62 26 -68 c 7 -6 17 -30 20 -53 c 4 -23 16 -57 27 -74 c 21 -35 21 -88 0 -88 c -7 0 -20 12 -30 27 c -19 29 -122 168 -192 259 c -25 32 -56 74 -70 94 c -14 20 -43 60 -65 88 c -22 29 -48 63 -58 77 c -9 14 -29 42 -44 62 c -15 21 -48 66 -72 100 c -24 35 -47 65 -50 68 c -7 5 -154 202 -193 258 c -46 65 -98 136 -138 186 c -42 52 -80 104 -80 111 c 0 3 -21 32 -47 65 c -27 32 -59 75 -73 95 c -14 20 -34 47 -45 61 c -11 13 -31 40 -45 59 c -45 64 -98 136 -133 180 c -13 17 -41 55 -63 86 c -32 46 -123 168 -189 254 c -8 11 -39 53 -68 93 c -28 41 -70 97 -93 125 c -22 29 -61 80 -85 115 c -24 34 -57 79 -72 100 c -15 20 -35 48 -45 62 c -9 13 -24 32 -32 42 c -17 19 -29 35 -102 136 c -29 40 -85 117 -125 170 c -40 53 -86 116 -104 139 c -17 24 -29 49 -25 58 c 8 21 43 19 72 -4 z m 7594 -46 c 0 -6 -36 -60 -72 -111 c -13 -17 -32 -44 -43 -60 c -11 -16 -38 -52 -60 -81 c -22 -28 -51 -68 -65 -88 c -14 -20 -43 -60 -66 -88 c -22 -29 -56 -74 -74 -102 c -19 -27 -55 -76 -80 -107 c -25 -31 -56 -73 -70 -93 c -14 -20 -45 -63 -70 -95 c -25 -32 -56 -75 -70 -95 c -14 -20 -45 -62 -70 -95 c -61 -79 -161 -216 -180 -245 c -9 -13 -27 -38 -40 -56 c -61 -79 -77 -100 -100 -134 c -14 -20 -43 -60 -65 -88 c -42 -54 -97 -128 -191 -257 c -30 -41 -64 -86 -75 -100 c -24 -31 -65 -87 -99 -135 c -14 -20 -45 -63 -70 -95 c -25 -32 -56 -75 -70 -95 c -14 -20 -45 -63 -70 -95 c -125 -164 -177 -234 -195 -263 c -11 -17 -26 -39 -35 -49 c -18 -20 -31 -38 -112 -148 c -34 -47 -68 -89 -75 -93 c -7 -4 -13 -14 -13 -20 c 0 -11 -77 -116 -122 -167 c -7 -9 -21 -28 -31 -43 c -41 -63 -61 -4 -23 68 c 14 26 26 60 26 75 c 0 15 8 38 19 51 c 10 13 21 42 25 64 c 4 22 16 54 27 71 c 10 17 19 41 19 53 c 0 12 11 43 25 69 c 14 26 25 56 25 67 c 0 11 11 41 25 67 c 14 26 25 56 25 67 c 0 11 11 41 25 67 c 14 26 25 55 25 65 c 0 10 9 33 19 51 c 11 18 23 51 27 73 c 3 22 12 47 20 55 c 7 8 18 38 25 65 c 6 28 20 64 29 80 c 10 17 20 47 23 68 c 3 20 15 49 26 64 c 12 14 21 39 21 55 c 0 17 9 41 19 54 c 11 14 22 44 26 67 c 4 23 15 56 25 72 c 10 17 21 46 25 65 c 4 19 15 49 25 65 c 9 17 20 47 23 69 c 4 21 13 46 21 55 c 9 10 20 42 26 71 c 6 29 17 61 25 69 c 7 9 19 39 25 66 c 6 27 17 56 25 65 c 7 8 16 33 20 55 c 4 22 15 54 25 70 c 10 17 21 47 24 69 c 4 21 16 50 26 65 c 10 14 21 44 25 66 c 4 22 15 54 25 70 c 9 17 21 48 25 70 c 4 22 13 47 21 56 c 7 8 17 32 21 54 c 5 21 15 41 23 45 c 8 4 33 16 55 27 c 22 11 58 23 80 27 c 22 4 54 16 70 26 c 17 9 50 20 75 24 c 24 4 52 14 61 22 c 9 8 34 18 55 21 c 22 4 59 17 83 30 c 24 13 58 23 76 23 c 19 0 39 8 49 19 c 10 10 38 22 64 26 c 26 4 61 15 78 26 c 17 10 43 19 56 19 c 14 0 45 11 69 23 c 24 13 63 27 87 31 c 24 3 54 14 68 23 c 14 8 45 20 71 24 c 26 5 54 16 63 24 c 10 9 41 19 69 24 c 29 5 57 13 64 20 c 11 11 57 16 57 6 z m -4016 -521 c 15 -14 16 -228 14 -2317 c -2 -1285 -7 -2310 -12 -2320 c -13 -27 -29 -15 -43 33 c -7 23 -22 61 -33 84 c -11 23 -20 48 -20 55 c 0 7 -11 37 -25 67 c -14 30 -25 60 -25 67 c 0 7 -8 28 -19 47 c -10 19 -22 51 -26 70 c -4 19 -16 49 -26 66 c -10 17 -19 40 -19 50 c 0 11 -11 42 -25 69 c -13 28 -25 57 -25 65 c 0 8 -11 38 -25 65 c -13 28 -25 58 -25 67 c 0 9 -11 38 -25 64 c -14 26 -25 54 -25 63 c 0 9 -8 32 -19 51 c -10 19 -22 51 -26 70 c -4 19 -16 51 -26 70 c -11 19 -19 42 -19 50 c 0 8 -11 38 -25 65 c -13 28 -25 57 -25 65 c 0 8 -11 38 -25 65 c -13 28 -25 58 -25 68 c 0 10 -9 35 -19 55 c -11 20 -27 60 -36 87 c -9 28 -23 70 -31 95 c -8 25 -24 62 -35 82 c -10 20 -19 45 -19 55 c 0 10 -9 34 -19 54 c -11 20 -25 56 -31 80 c -7 24 -20 60 -30 79 c -9 19 -20 51 -24 71 c -4 21 -13 42 -20 48 c -8 7 -17 28 -21 49 c -4 20 -13 48 -21 62 c -13 24 -32 77 -75 203 c -10 32 -26 68 -34 80 c -8 12 -15 33 -15 47 c 0 14 -7 35 -15 47 c -8 12 -24 48 -34 80 c -42 125 -62 179 -75 203 c -8 14 -17 41 -21 60 c -4 19 -16 51 -26 70 c -11 19 -19 41 -19 49 c 0 8 -9 33 -19 55 c -19 40 -44 106 -80 216 c -10 30 -26 69 -35 85 c -9 17 -16 38 -16 48 c 0 10 -8 35 -19 55 c -17 35 -32 73 -68 182 c -8 25 -23 63 -34 86 c -10 23 -19 47 -19 55 c 0 8 -11 37 -25 64 c -13 28 -25 58 -25 68 c 0 10 -11 43 -25 73 c -14 30 -25 62 -25 72 c 0 9 -9 31 -19 48 c -10 17 -22 46 -26 65 c -4 19 -16 51 -26 71 c -11 21 -19 45 -19 55 c 0 10 -11 41 -25 68 c -13 28 -25 58 -25 68 c 0 10 -9 36 -21 59 c -21 42 -18 53 16 61 c 11 3 401 5 867 6 c 760 1 848 -1 862 -15 z m 2126 10 c 26 -6 31 -11 27 -28 c -10 -40 -39 -121 -63 -177 c -13 -31 -24 -64 -24 -73 c 0 -8 -9 -30 -20 -48 c -11 -18 -20 -42 -20 -52 c 0 -11 -9 -38 -19 -60 c -22 -47 -56 -139 -76 -208 c -7 -25 -20 -57 -28 -70 c -8 -12 -18 -39 -22 -58 c -4 -19 -13 -44 -20 -55 c -6 -11 -19 -42 -28 -70 c -28 -87 -58 -169 -78 -211 c -10 -22 -19 -49 -19 -60 c 0 -10 -7 -32 -16 -49 c -15 -29 -30 -67 -74 -192 c -11 -32 -27 -71 -34 -88 c -8 -16 -18 -43 -22 -60 c -4 -16 -15 -47 -25 -67 c -11 -21 -19 -45 -19 -55 c 0 -10 -12 -40 -25 -68 c -14 -27 -25 -57 -25 -65 c 0 -8 -12 -37 -25 -65 c -14 -27 -25 -58 -25 -69 c 0 -10 -9 -33 -19 -50 c -10 -17 -22 -47 -26 -66 c -4 -19 -16 -51 -26 -70 c -11 -19 -19 -42 -19 -50 c 0 -8 -11 -39 -25 -68 c -14 -30 -25 -61 -25 -70 c 0 -10 -12 -39 -25 -67 c -14 -27 -25 -57 -25 -65 c 0 -8 -12 -37 -25 -65 c -14 -27 -25 -58 -25 -69 c 0 -10 -9 -33 -19 -50 c -10 -17 -22 -47 -26 -66 c -4 -19 -13 -46 -21 -60 c -12 -23 -27 -61 -71 -190 c -8 -25 -24 -63 -34 -86 c -11 -22 -19 -47 -19 -55 c 0 -8 -8 -30 -19 -49 c -10 -19 -22 -51 -26 -70 c -4 -19 -15 -48 -25 -65 c -10 -16 -21 -46 -25 -65 c -4 -19 -13 -44 -20 -56 c -7 -11 -20 -44 -29 -72 c -8 -29 -22 -62 -30 -74 c -9 -12 -16 -32 -16 -43 c 0 -11 -11 -42 -25 -70 c -13 -27 -25 -57 -25 -65 c 0 -8 -8 -31 -19 -50 c -10 -19 -22 -50 -26 -69 c -4 -18 -17 -56 -29 -85 c -13 -28 -35 -85 -51 -126 c -15 -41 -36 -93 -46 -116 c -10 -23 -19 -47 -19 -55 c 0 -8 -11 -36 -25 -64 c -13 -27 -25 -57 -25 -65 c 0 -9 -9 -33 -19 -54 c -11 -21 -23 -52 -27 -69 c -3 -18 -15 -48 -25 -67 c -11 -19 -24 -54 -29 -77 c -12 -47 -24 -54 -40 -24 c -16 30 -14 4623 2 4639 c 9 9 212 12 854 12 c 463 0 856 -3 874 -6 z m -5830 -259 c 0 -8 -4 -15 -10 -15 c -5 0 -10 7 -10 15 c 0 8 5 15 10 15 c 6 0 10 -7 10 -15 z m 100 -151 c 0 -16 -16 -19 -25 -4 c -8 13 4 32 16 25 c 5 -4 9 -13 9 -21 z m 46 -60 c -5 -13 -10 -14 -18 -6 c -6 6 -8 18 -4 28 c 5 13 10 14 18 6 c 6 -6 8 -18 4 -28 z m 7534 16 c 0 -5 -4 -10 -10 -10 c -5 0 -10 5 -10 10 c 0 6 5 10 10 10 c 6 0 10 -4 10 -10 z m -7486 -76 c 10 -25 7 -34 -9 -34 c -9 0 -15 9 -15 25 c 0 28 15 34 24 9 z m 50 -60 c 9 -24 7 -34 -8 -34 c -16 0 -29 27 -20 41 c 8 14 21 11 28 -7 z m 7336 -10 c 0 -8 -5 -12 -10 -9 c -6 4 -8 11 -5 16 c 9 14 15 11 15 -7 z m -7289 -63 c 6 -16 21 -37 35 -46 c 13 -8 24 -22 24 -29 c 0 -8 11 -21 25 -30 c 14 -9 25 -23 25 -32 c 0 -8 7 -17 15 -20 c 8 -3 17 -14 20 -24 c 7 -22 53 -83 133 -175 c 12 -14 22 -30 22 -34 c 0 -5 21 -36 48 -69 c 26 -34 58 -77 72 -97 c 14 -20 55 -74 93 -121 c 37 -47 67 -89 67 -93 c 0 -5 24 -38 53 -74 c 28 -36 63 -82 77 -102 c 25 -36 36 -51 83 -110 c 13 -16 30 -40 36 -53 c 7 -13 19 -31 27 -40 c 30 -34 102 -129 137 -181 c 20 -29 54 -74 75 -100 c 22 -25 45 -56 51 -69 c 7 -13 19 -31 28 -40 c 8 -9 39 -51 69 -92 c 78 -109 86 -120 114 -150 c 14 -16 36 -47 50 -70 c 14 -23 34 -52 45 -63 c 11 -12 27 -31 35 -43 c 8 -12 29 -41 45 -64 c 17 -24 35 -50 40 -59 c 6 -9 18 -25 28 -36 c 18 -20 50 -62 97 -130 c 14 -20 45 -63 70 -95 c 25 -32 56 -75 70 -96 c 14 -20 32 -44 40 -53 c 8 -9 31 -38 50 -64 c 65 -89 89 -120 150 -201 c 17 -21 30 -42 30 -46 c 0 -4 11 -20 25 -36 c 65 -75 80 -96 182 -244 c 21 -30 59 -82 85 -115 c 26 -33 54 -69 62 -80 c 19 -24 115 -156 148 -203 c 43 -62 78 -107 96 -127 c 10 -11 31 -40 47 -65 c 27 -41 103 -140 139 -182 c 8 -9 20 -27 27 -40 c 6 -13 30 -45 53 -72 c 23 -28 46 -57 51 -67 c 22 -36 51 -76 90 -124 c 22 -27 54 -70 70 -95 c 17 -25 50 -71 75 -102 c 25 -31 68 -89 95 -128 c 79 -112 96 -136 161 -218 c 34 -43 69 -92 78 -110 c 20 -39 65 -54 80 -27 c 20 33 77 116 92 133 c 33 37 74 95 74 105 c 0 6 7 17 15 26 c 26 27 78 95 125 161 c 25 35 55 73 68 85 c 12 12 22 25 22 29 c 0 4 15 28 33 55 c 35 51 42 59 82 106 c 14 17 40 53 58 80 c 17 28 41 60 52 72 c 11 11 31 37 45 57 c 33 48 115 155 140 182 c 11 12 20 26 20 32 c 0 6 24 40 53 76 c 28 36 63 81 77 101 c 14 20 45 63 70 95 c 25 33 68 91 95 131 c 28 39 58 79 68 89 c 10 10 34 42 52 71 c 41 64 63 93 91 122 c 12 12 27 33 34 46 c 7 14 17 30 21 35 c 71 87 119 149 119 156 c 0 4 32 47 70 95 c 39 48 70 91 70 95 c 0 7 42 62 118 155 c 5 6 17 24 28 40 c 10 17 21 32 24 35 c 13 12 97 125 120 160 c 25 38 104 146 190 260 c 25 32 56 75 70 95 c 14 20 45 62 70 93 c 44 55 74 97 95 131 c 6 10 28 39 51 67 c 23 27 47 59 53 72 c 7 13 19 31 27 40 c 41 47 114 143 147 194 c 20 31 40 58 44 60 c 5 1 16 14 26 28 c 35 51 72 104 87 125 c 14 20 86 118 127 173 c 10 13 28 35 41 49 c 13 14 28 35 33 47 c 14 31 58 90 75 99 c 8 4 14 14 14 21 c 0 7 10 22 23 33 c 12 11 31 35 42 54 c 31 52 39 63 57 84 c 10 11 31 35 48 54 c 16 19 30 40 30 47 c 0 7 8 19 18 26 c 9 7 23 25 29 41 c 7 15 18 27 25 27 c 7 0 18 10 23 22 c 13 28 31 34 39 13 c 3 -10 -3 -25 -17 -38 c -12 -12 -28 -34 -35 -49 c -6 -16 -16 -28 -21 -28 c -5 0 -14 -12 -20 -27 c -6 -16 -25 -46 -41 -68 c -32 -42 -78 -107 -95 -134 c -46 -73 -85 -128 -124 -177 c -5 -6 -16 -24 -25 -40 c -9 -16 -32 -49 -51 -74 c -19 -25 -39 -54 -44 -65 c -9 -18 -38 -61 -76 -110 c -9 -11 -34 -47 -55 -80 c -22 -33 -60 -89 -85 -125 c -70 -98 -98 -139 -120 -174 c -11 -18 -34 -50 -51 -72 c -17 -21 -39 -52 -48 -69 c -9 -16 -30 -48 -47 -70 c -16 -22 -50 -69 -74 -105 c -24 -36 -58 -84 -74 -107 c -17 -24 -37 -55 -46 -70 c -9 -16 -29 -46 -46 -68 c -16 -22 -50 -69 -74 -105 c -24 -36 -59 -85 -76 -110 c -18 -25 -64 -92 -103 -149 c -39 -57 -90 -131 -114 -165 c -87 -126 -134 -194 -207 -301 c -42 -60 -88 -128 -103 -149 c -15 -22 -34 -49 -42 -61 c -59 -87 -116 -172 -123 -180 c -8 -10 -45 -63 -142 -205 c -24 -36 -58 -83 -74 -105 c -17 -22 -38 -53 -47 -70 c -9 -16 -33 -51 -53 -77 c -20 -25 -45 -61 -56 -79 c -11 -18 -27 -43 -35 -55 c -8 -11 -27 -38 -42 -60 c -15 -21 -41 -57 -57 -79 c -17 -22 -35 -50 -40 -62 c -5 -11 -15 -24 -21 -28 c -5 -3 -19 -23 -31 -43 c -11 -20 -42 -68 -70 -107 c -90 -126 -153 -217 -264 -380 c -44 -65 -89 -130 -100 -145 c -11 -15 -39 -56 -62 -91 c -24 -35 -51 -74 -60 -86 c -22 -26 -51 -69 -101 -144 c -107 -163 -132 -196 -157 -207 c -24 -11 -29 -10 -41 5 c -7 10 -14 21 -14 25 c 0 4 -6 13 -13 20 c -13 13 -33 42 -77 108 c -46 69 -119 174 -149 215 c -17 22 -38 53 -47 69 c -9 16 -20 34 -25 40 c -25 29 -66 88 -84 117 c -11 18 -27 43 -35 55 c -8 11 -27 38 -42 60 c -15 21 -50 71 -77 109 c -28 39 -58 84 -67 100 c -9 17 -33 50 -53 75 c -20 25 -42 56 -49 70 c -7 14 -26 43 -42 65 c -17 22 -51 69 -75 105 c -25 36 -61 88 -80 115 c -20 28 -40 59 -46 70 c -5 11 -23 38 -40 60 c -27 36 -52 72 -99 140 c -47 68 -72 104 -99 140 c -17 22 -35 49 -40 60 c -6 11 -26 43 -46 70 c -19 28 -55 79 -80 115 c -24 36 -62 91 -85 122 c -22 32 -40 62 -40 67 c 0 6 -6 14 -13 18 c -11 7 -35 40 -127 177 c -19 29 -63 92 -92 132 c -23 31 -38 53 -87 129 c -14 21 -32 46 -39 55 c -8 8 -30 40 -50 71 c -51 78 -126 186 -161 234 c -17 22 -38 54 -47 70 c -17 31 -64 96 -75 105 c -3 3 -14 19 -23 35 c -9 17 -30 48 -47 70 c -16 22 -50 69 -74 105 c -24 36 -58 84 -74 107 c -17 24 -37 55 -46 70 c -8 16 -31 48 -50 73 c -19 25 -39 54 -45 65 c -6 11 -26 40 -45 65 c -19 25 -42 59 -51 75 c -9 17 -31 48 -48 70 c -17 22 -54 73 -81 114 c -28 40 -69 101 -93 135 c -23 33 -60 88 -81 121 c -22 33 -45 67 -53 75 c -14 17 -66 91 -83 120 c -5 9 -22 35 -37 56 c -58 82 -115 164 -163 235 c -27 41 -53 76 -56 79 c -3 3 -14 19 -23 35 c -9 17 -32 50 -51 75 c -19 25 -38 52 -42 60 c -3 8 -17 28 -30 43 c -13 16 -23 33 -23 39 c 0 6 -11 21 -25 34 c -14 13 -25 32 -25 44 c 0 11 -6 20 -14 20 c -15 0 -26 21 -26 51 c 0 29 20 23 31 -10 z m 7244 20 c 3 -5 1 -12 -5 -16 c -5 -3 -10 1 -10 9 c 0 18 6 21 15 7 z m -45 -97 c 0 -14 -12 -19 -23 -8 c -9 9 4 35 14 28 c 5 -3 9 -12 9 -20 z m -46 -57 c -7 -19 -20 -22 -29 -7 c -9 15 16 43 27 32 c 5 -5 6 -16 2 -25 z m -44 -39 c 0 -25 -12 -58 -21 -58 c -10 0 -12 53 -2 63 c 10 11 23 8 23 -5 z" stroke-linecap="round"/>
</g>
</g>
</g>
</svg>