<?xml version="1.0" encoding="UTF-8" standalone="no" ?>
<!DOCTYPE svg PUBLIC "-//W3C//DTD SVG 1.1//EN" "http://www.w3.org/Graphics/SVG/1.1/DTD/svg11.dtd">
<svg xmlns="http://www.w3.org/2000/svg" xmlns:xlink="http://www.w3.org/1999/xlink" version="1.1" width="598" height="682" viewBox="0 0 598 682" xml:space="preserve">
<desc>Created with Fabric.js 3.6.3</desc>
<defs>
</defs>
<g transform="matrix(3.67 0 0 3.67 312.75 291.79)"  >
<polygon style="stroke: rgb(0,0,0); stroke-width: 8; stroke-dasharray: none; stroke-linecap: butt; stroke-dashoffset: 0; stroke-linejoin: miter; stroke-miterlimit: 4; fill: none; fill-rule: nonzero; opacity: 1;"  points="-19.9,34.5 -39.8,0 -19.9,-34.5 19.9,-34.5 39.8,0 19.9,34.5 " />
</g>
<g transform="matrix(2.54 0 0 2.58 313.12 403.7)"  >
<polygon style="stroke: rgb(0,0,0); stroke-width: 8; stroke-dasharray: none; stroke-linecap: butt; stroke-dashoffset: 0; stroke-linejoin: miter; stroke-miterlimit: 4; fill: rgb(244,244,233); fill-rule: nonzero; opacity: 1;"  points="0,-50 35,0 0,50 -35,0 " />
</g>
<g transform="matrix(3 0 0 3 308.4 279.42)"  >
<polygon style="stroke: rgb(0,0,0); stroke-width: 8; stroke-dasharray: none; stroke-linecap: butt; stroke-dashoffset: 0; stroke-linejoin: miter; stroke-miterlimit: 4; fill: rgb(244,244,233); fill-rule: nonzero; opacity: 1;"  points="-19.9,34.5 -39.8,0 -19.9,-34.5 19.9,-34.5 39.8,0 19.9,34.5 " />
</g>
<g transform="matrix(2.12 0 0 2.12 312.86 288.3)"  >
<polygon style="stroke: rgb(0,0,0); stroke-width: 8; stroke-dasharray: none; stroke-linecap: butt; stroke-dashoffset: 0; stroke-linejoin: miter; stroke-miterlimit: 4; fill: none; fill-rule: nonzero; opacity: 1;"  points="-39.8,27.5 -39.8,-7.5 -19.9,-27.5 19.9,-27.5 39.8,-7.5 39.8,27.5 " />
</g>
<g transform="matrix(1 0 0 1 453.5 98.23)" style=""  >
		<text xml:space="preserve" font-family="'Open Sans', sans-serif" font-size="18" font-style="normal" font-weight="normal" style="stroke: none; stroke-width: 1; stroke-dasharray: none; stroke-linecap: butt; stroke-dashoffset: 0; stroke-linejoin: miter; stroke-miterlimit: 4; fill: rgb(247,242,242); fill-rule: nonzero; opacity: 1; white-space: pre;" ><tspan x="-216" y="5.97" style="font-family: 'Comic Sans MS', 'Comic Sans', cursive, sans-serif; font-size: 19px; font-weight: bold; ">GTPS.FINANCE</tspan></text>
</g>
<g transform="matrix(1 0 0 1 295.5 326.5)"  >
<line style="stroke: rgb(0,0,0); stroke-width: 2; stroke-dasharray: none; stroke-linecap: butt; stroke-dashoffset: 0; stroke-linejoin: miter; stroke-miterlimit: 4; fill: rgb(0,0,0); fill-rule: nonzero; opacity: 1;" vector-effect="non-scaling-stroke"  x1="-22.5" y1="-90.5" x2="22.5" y2="90.5" />
</g>
<g transform="matrix(1 0 0 1 336 327)"  >
<line style="stroke: rgb(0,0,0); stroke-width: 2; stroke-dasharray: none; stroke-linecap: butt; stroke-dashoffset: 0; stroke-linejoin: miter; stroke-miterlimit: 4; fill: rgb(0,0,0); fill-rule: nonzero; opacity: 1;" vector-effect="non-scaling-stroke"  x1="17" y1="-92" x2="-17" y2="92" />
</g>
<g transform="matrix(1 0 0 1 315.5 320)"  >
<line style="stroke: rgb(0,0,0); stroke-width: 2; stroke-dasharray: none; stroke-linecap: butt; stroke-dashoffset: 0; stroke-linejoin: miter; stroke-miterlimit: 4; fill: rgb(0,0,0); fill-rule: nonzero; opacity: 1;" vector-effect="non-scaling-stroke"  x1="-1.5" y1="-83" x2="1.5" y2="83" />
</g>
<g transform="matrix(1 0 0 1 354.5 342.5)"  >
<line style="stroke: rgb(239,234,234); stroke-width: 2; stroke-dasharray: none; stroke-linecap: butt; stroke-dashoffset: 0; stroke-linejoin: miter; stroke-miterlimit: 4; fill: rgb(0,0,0); fill-rule: nonzero; opacity: 1;" vector-effect="non-scaling-stroke"  x1="36.5" y1="-67.5" x2="-36.5" y2="67.5" />
</g>
<g transform="matrix(1 0 0 1 277.5 341.5)"  >
<line style="stroke: rgb(0,0,0); stroke-width: 2; stroke-dasharray: none; stroke-linecap: butt; stroke-dashoffset: 0; stroke-linejoin: miter; stroke-miterlimit: 4; fill: rgb(0,0,0); fill-rule: nonzero; opacity: 1;" vector-effect="non-scaling-stroke"  x1="-40.5" y1="-66.5" x2="40.5" y2="66.5" />
</g>
<g transform="matrix(1 0 0 1 287 168)"  >
<path style="stroke: rgb(243,238,238); stroke-width: 1; stroke-dasharray: none; stroke-linecap: round; stroke-dashoffset: 0; stroke-linejoin: round; stroke-miterlimit: 10; fill: none; fill-rule: nonzero; opacity: 1;"  transform=" translate(-287, -168)" d="M 286.999 168 L 287.001 168" stroke-linecap="round" />
</g>
</svg>